# xmcd
#
# Track frame offsets:
#	150
#	18963
#	37776
#	57670
#	72174
#	91696
#	112107
#	129678
#	147973
#	166858
#
# Disc length: 2629 seconds
# Revision: 0
# Processed by: cddbd v1.5.2PL0 Copyright (c) Steve Scherf et al.
# Submitted via: dBpowerAMP V12.0
#
DISCID=820a430a
DTITLE=Amon Amarth - Twilight of the Thunder God
DYEAR=2008
DGENRE=Metal
TTITLE0=Twilight of the Thunder God
TTITLE1=Free Will Sacrifice
TTITLE2=Guardians of Asgaard
TTITLE3=Where Is Your God?
TTITLE4=Varyags of Miklagaard
TTITLE5=Tattered Banners and Bloody Flags
TTITLE6=No Fear for the Setting Sun
TTITLE7=The Hero
TTITLE8=Live for the Kill
TTITLE9=Embrace of the Endless Ocean
EXTD=
EXTT0=
EXTT1=
EXTT2=
EXTT3=
EXTT4=
EXTT5=
EXTT6=
EXTT7=
EXTT8=
EXTT9=
PLAYORDER=
